# xmcd CD database file
#
# Track frame offsets:
#	150
#	10155
#	19095
#	33502
#	42682
#	59920
#	79367
#	92995
#	106450
#	114755
#	133062
#	153325
#	172827
#	194857
#
# Disc length: 2964 seconds
#
# Revision: 0
# Processed by: cddbd v1.5.1PL0 Copyright (c) Steve Scherf et al.
# Submitted via: CDex 1.51
#
DISCID=c30b920e
DTITLE=Anetta Zehnder and her Trio - A Night At The Victoria Jungfrau
DYEAR=1900
DGENRE=Jazz
TTITLE0=What a Wonderful World
TTITLE1=Crazy Rhythm
TTITLE2=Here There and everywhere
TTITLE3=Ain't he sweet
TTITLE4=The way you look tonight
TTITLE5=Making whoopee
TTITLE6=Music of the World
TTITLE7=The Continental
TTITLE8=Fly me to the moon
TTITLE9=dona lee
TTITLE10=chattanooga Choo Choo
TTITLE11=Summertime
TTITLE12=Girl from Ipanema
TTITLE13=Autumn Leaves
EXTD=
EXTT0=
EXTT1=
EXTT2=
EXTT3=
EXTT4=
EXTT5=
EXTT6=
EXTT7=
EXTT8=
EXTT9=
EXTT10=
EXTT11=
EXTT12=
EXTT13=
PLAYORDER=
